<svg xmlns="http://www.w3.org/2000/svg" width="239.824" height="67.558" viewBox="0 0 239.824 67.558"><path data-name="パス 2269" d="M0 17.052h6.408a8.426 8.426 0 016.132 2.136q2.2 2.136 2.2 6.336a10.5 10.5 0 01-.612 3.744 7.282 7.282 0 01-1.764 2.712 7.351 7.351 0 01-2.816 1.656 11.808 11.808 0 01-3.74.552H0zM5.88 31.14a6.365 6.365 0 002.376-.4 3.911 3.911 0 001.6-1.14 4.785 4.785 0 00.9-1.764 8.434 8.434 0 00.288-2.292 9.463 9.463 0 00-.252-2.268 4.432 4.432 0 00-.8-1.716 3.662 3.662 0 00-1.428-1.08 5.345 5.345 0 00-2.148-.384h-2.84v11.04zm13.008-14.088h6.072a10 10 0 013.324.468 5.364 5.364 0 012.052 1.224 4.137 4.137 0 011.032 1.68 6.07 6.07 0 01.288 1.812 5.873 5.873 0 01-.6 2.784 4.748 4.748 0 01-2.016 1.9l3.48 7.268h-3.864l-2.88-6.432h-3.36v6.432h-3.528zM25.2 24.78a4.559 4.559 0 001.392-.18 2.163 2.163 0 00.876-.5 1.691 1.691 0 00.444-.78 3.958 3.958 0 00.12-1.008 2.682 2.682 0 00-.144-.876 1.81 1.81 0 00-.492-.744 2.367 2.367 0 00-.96-.5 5.591 5.591 0 00-1.548-.18h-2.472v4.776zm10.56-7.728h3.576v17.136H35.76zm6.768 0h3.984l4.152 12.12 4.272-12.12h3.84l-6.428 17.136H48.96zm19.44 0h11.688V20.1h-8.108v3.744h7.632v3.072h-7.632v4.224h8.616l-.364 3.048H61.968z"/><path data-name="パス 2270" d="M99.157 17.522l.382-.088a1.524 1.524 0 011.443.544 43.623 43.623 0 00-.531 10.22 48.168 48.168 0 01.275 5.786l.854-.746q2.951-4.011 4.449-6.24t3.591-6.152q2.095-3.922 2.863-3.605a.877.877 0 01.664.976 26.973 26.973 0 01-1.617 4.016 82.515 82.515 0 01-6.725 10.88q-4.039 4.373-4.12 5.269a53.222 53.222 0 01-.726 9.39q.192.834-1.177 5.833-1.693 5.33-2.108 5.755-3.01 5.816-4.99 6.273.016.07-.425.537l-.275-.083-1.462.484q-2.848-.293-3.81-1.608a12.592 12.592 0 01-1.778-3.101 13.779 13.779 0 01.273-5.624q.043-2.68 2.683-6.764a32.787 32.787 0 014.332-6.269 18.457 18.457 0 012.288-2.135 31.038 31.038 0 014.052-4.155 45.423 45.423 0 00-.082-8.91q.244-.057.052-.89-.105.024-.137-.115a13.6 13.6 0 00-1.321 2.358 12.792 12.792 0 00-1.882 2.625q-3.155 4.24-4.127 4.465l-1.39.321q-1.423.329-3.181-1.899l.04-.302-.321-1.39q-.032-.138-.137-.114a26.868 26.868 0 00.323-4.317 12.684 12.684 0 00.502-2.897q.208-.048.453-2.157a4.021 4.021 0 011.829-1.736q1.582.037 1.782.906a14.142 14.142 0 01-1.266 3.072q.032.14-.577 3.206a13.872 13.872 0 00-.205 3.706q.603 1.032.778.992l.346-.08q.695-.16 3.599-3.904.487-.112 1.068-1.71.66-.152.855-1.369A22.01 22.01 0 0097.5 21.27q.58-3.354.926-3.434zM86.254 61.619q1.261 2.928 3.068 2.51l.62-.142a5.235 5.235 0 002.245-1.835q-.04-.174.92-1.09-.097-.417 1.321-2.358a15.332 15.332 0 011.103-3.177q.568-2.766 1.054-2.878l.14-.032-.097-.416 1.206-11.254-.064-.278-.139.032a50.143 50.143 0 00-9.157 11.04 35.143 35.143 0 01-1.953 4.695 21.594 21.594 0 00-.267 5.183zm9.784-7.38l.064.277.243-.056-.064-.278zm18.608-39.19l.427-.21q4.122-1.316 4.844-.091.193-.118 1.689 1.765a7.722 7.722 0 01.502 2.811l-.06-.096-.034.008q.793-.366 5.108-5.605a3.931 3.931 0 01.991-.778q.906 1.546-4.038 7.846a10.167 10.167 0 01-2.632 2.071 28.726 28.726 0 01-3.08 4.406 5.978 5.978 0 00-.823.555 4.987 4.987 0 01-5.6-.646 17.041 17.041 0 01-1.261-1.501q-2.4-4.055.337-7.432a6.123 6.123 0 012.944-2.618q-.066-.098.686-.486zm.927 4.65q1.74 2.307 3.538 1.38l.33-.15a4.541 4.541 0 00.35-3.08q-1.482-2.146-2.694-1.534-.118-.192-.441-.008-2.393 1.203-1.084 3.388zm-2.963 4.124l.177.289q1.157 2 2.065 1.974a3.138 3.138 0 001.543-.43q1.645-1.586 1.686-2.03l.008.034q-3.61-.74-4.853-2.794-.096.06-.288-.298a6.5 6.5 0 00-.412-1.15l-.035.009a4.71 4.71 0 00.108 4.391zm15.994-11.381a2.631 2.631 0 011.518.234q.112.487-1.474 5.023a12.006 12.006 0 00.065 4.082q.422.562.716.567 1.39-.32 4.752-4.755 1.664-2.615 3.72-6.709a6.39 6.39 0 011.602-.662l.417-.096q.209-.049.716.566a9.847 9.847 0 01-1.154 2.608 15.42 15.42 0 00-.619 3.65l.289 1.25q.04.173.855.534 2.046-.473 6.79-8.3a5.774 5.774 0 011.634-2.43l.14-.031q.285-.03.341.213-.296 3.47-3.733 9.495a8.061 8.061 0 01-4.595 3.549l-.14.032q-2.465.57-4.552-2.607-3.382 5.317-4.702 5.622a6.39 6.39 0 01-1.603.663q-2.293.53-3.623-2.383l-.032-.14q-.955-4.133 1.762-9.48a3.269 3.269 0 00.91-.495zm27.752-10.359q.73-.168 1.833 1.443.337 1.461-2.126 8.063a11.444 11.444 0 00-.275 4.672q.136.59.831.43l.59-.136q2.929-1.737 7.761-10.28a1.166 1.166 0 00.8-1.427q-.022-.252.187-.3l.104-.024q.173-.04.427.266l.08.347a5.036 5.036 0 01-.792 2.417q-.144 1.753-3.258 6.643a17.039 17.039 0 01-4.663 4.698l-.45.104a3.661 3.661 0 01-4.203-1.408q-.08-.347-.184-.323 0-.475.14-.507l-.196-.211-.193-.833q-.131-2.311 1.915-6.918a5.5 5.5 0 01.77-1.896 5.452 5.452 0 00.32-1.94l-.032-.14-.487.113a10.943 10.943 0 01-4.707 2.729l-.104.024a17.093 17.093 0 00-1.365 2.803 1.514 1.514 0 01-.646.369l-.105.024q-.625.144-1.288-.69-.075-.642.775-1.533a1.419 1.419 0 01.073-.639l-1.016-.752-.032-.14a1.489 1.489 0 01.526-1.365l.83-.192 1.667-.86.97.398a28.362 28.362 0 004.609-2.706 4.267 4.267 0 00.915-.32z" fill="#91d8d8"/><path data-name="パス 2271" d="M137.896 24.804h6.576v7.248a9.283 9.283 0 01-3.144 1.896 10.815 10.815 0 01-3.768.672 9.055 9.055 0 01-3.564-.648 6.759 6.759 0 01-2.532-1.824 7.751 7.751 0 01-1.516-2.844 12.7 12.7 0 01-.5-3.684 11.809 11.809 0 01.552-3.744 8.242 8.242 0 011.572-2.832 6.738 6.738 0 012.484-1.8 8.244 8.244 0 013.264-.624 8.791 8.791 0 012.844.408 6 6 0 012.016 1.128 5.585 5.585 0 011.32 1.68 7.772 7.772 0 01.708 2.064l-3.552.456a6.893 6.893 0 00-.348-1.14 2.314 2.314 0 00-.588-.84 2.53 2.53 0 00-.96-.528 4.9 4.9 0 00-1.44-.18 3.488 3.488 0 00-3.12 1.56 7.924 7.924 0 00-1.032 4.392 7.842 7.842 0 001.044 4.4 3.8 3.8 0 003.4 1.548 7.421 7.421 0 001.956-.228 6.016 6.016 0 001.6-.708V27.78h-3.272zm10.728-7.752h6.072a10 10 0 013.324.468 5.364 5.364 0 012.052 1.224 4.137 4.137 0 011.032 1.68 6.07 6.07 0 01.288 1.812 5.873 5.873 0 01-.6 2.784 4.748 4.748 0 01-2.016 1.9l3.48 7.268h-3.864l-2.88-6.432h-3.364v6.432h-3.524zm6.312 7.728a4.559 4.559 0 001.392-.18 2.163 2.163 0 00.876-.5 1.691 1.691 0 00.444-.78 3.958 3.958 0 00.12-1.008 2.682 2.682 0 00-.144-.876 1.81 1.81 0 00-.492-.744 2.367 2.367 0 00-.96-.5 5.591 5.591 0 00-1.548-.18h-2.476v4.776zm17.9 9.84a8.928 8.928 0 01-3.428-.624 6.978 6.978 0 01-2.568-1.8 8.076 8.076 0 01-1.62-2.832 11.577 11.577 0 01-.564-3.744 11.577 11.577 0 01.564-3.744 7.978 7.978 0 011.628-2.832 7.089 7.089 0 012.58-1.8 8.861 8.861 0 013.408-.624 8.928 8.928 0 013.432.624 6.869 6.869 0 012.556 1.8 8.031 8.031 0 011.6 2.832 11.809 11.809 0 01.552 3.744 12.051 12.051 0 01-.54 3.744 7.888 7.888 0 01-1.588 2.832 6.869 6.869 0 01-2.556 1.8 9 9 0 01-3.452.624zm-.02-3.072a3.863 3.863 0 003.36-1.536 7.451 7.451 0 001.1-4.392 7.46 7.46 0 00-1.1-4.38 3.851 3.851 0 00-3.36-1.548 3.851 3.851 0 00-3.36 1.548 7.46 7.46 0 00-1.1 4.38 7.451 7.451 0 001.1 4.392 3.863 3.863 0 003.36 1.536zm10.368-14.5h4.032l2.76 11.9 2.808-11.8h3.792l2.928 11.808 2.592-11.9h3.84l-4.656 17.132h-3.48l-3.192-12.672-3.096 12.672h-3.384zm30.5 3.1h-5.156v-3.1h13.92v3.1h-5.16v14.04h-3.6zm12.192-3.1h3.576v6.624h6.796v-6.624h3.576v17.14h-3.576v-7.2h-6.792v7.2h-3.576z"/></svg>