<svg xmlns="http://www.w3.org/2000/svg" width="432" height="125.82" viewBox="0 0 432 125.82"><path d="M22.8 48.6c-2.16 0-3.3-.06-3.3-2.16v-9.12c0-2.22.06-2.88.96-3.42.24-.12.6-.3.6-.66 0-.66-1.14-.54-3.42-.78-.24 0-.6-.06-.84-.06-.42 0-.72.18-.72.66a2.251 2.251 0 00.06.6 36.467 36.467 0 01.18 3.66v8.46c0 .78-.06 1.5-.06 2.28 0 3.3 3 3.54 5.58 3.54h12.84c2.52 0 4.08 0 5.22-1.62a21.668 21.668 0 002.34-7.44c0-1.02-1.26-1.26-2.04-1.26-.84 0-.96.36-1.2 1.44-1.08 5.34-1.02 5.88-4.44 5.88zm29.82-.36c0-1.08-3.24-6.48-3.96-7.74a89.16 89.16 0 00-4.26-6.3 1.574 1.574 0 00-1.2-.84c-.72 0-1.8.78-1.8 1.56a1.862 1.862 0 00.54 1.08 61.384 61.384 0 017.56 12.42c.3.72.6 1.26 1.44 1.26.72 0 1.68-.66 1.68-1.44zM33.9 40.98a10.021 10.021 0 00-1.68-3c-1.32-1.8-2.76-3.66-4.2-5.4a1.336 1.336 0 00-1.02-.54c-.72 0-1.74.66-1.74 1.5a1.862 1.862 0 00.54 1.08 62.024 62.024 0 013.84 5.04c1.32 2.04 1.62 2.82 2.46 2.82.6 0 1.8-.54 1.8-1.5zM13.14 37.5c0-.66-3.12-1.74-3.36-1.74-.54 0-.72.42-.9.84a32.568 32.568 0 01-6.42 10.5c-.42.42-1.08 1.02-1.08 1.62 0 .78 1.2 1.38 1.92 1.38a2.2 2.2 0 001.68-1.02 40.136 40.136 0 006.54-10.32c.24-.6.48-.66 1.02-.72.24-.06.6-.24.6-.54zm31.5-16.86c1.02 0 1.44.42 1.44 1.44v2.1c0 1.02-.36 1.5-1.44 1.5H32.46c-1.08 0-1.44-.48-1.44-1.5v-2.1c0-1.02.42-1.44 1.44-1.44zm0-7.56a1.354 1.354 0 011.44 1.44v1.68a1.354 1.354 0 01-1.44 1.44H32.46a1.354 1.354 0 01-1.44-1.44v-1.68a1.354 1.354 0 011.44-1.44zm-12.18-2.94a1.371 1.371 0 01-1.44-1.5V6.66a1.354 1.354 0 011.44-1.44h12.18a1.354 1.354 0 011.44 1.44v1.98a1.371 1.371 0 01-1.44 1.5zm12.66 18.48c.6.06.78.36 1.08.84.24.6.96.6 1.5.6 1.2 0 1.62-.24 1.62-1.44 0-1.38-.06-2.82-.06-4.2V8.46c0-1.14.06-2.34.06-3.54 0-2.1-.48-2.76-2.58-2.76-.78 0-1.56.06-2.28.06H32.64c-.78 0-1.56-.06-2.28-.06-2.1 0-2.58.72-2.58 2.76 0 1.2.06 2.4.06 3.54v15.96c0 1.38-.06 2.82-.06 4.2 0 1.14.36 1.44 1.62 1.44.54 0 1.26-.06 1.5-.54.3-.48.48-.84 1.14-.9zm-28.56-13.5c.84 1.2 5.16 7.02 6.48 7.02a2.169 2.169 0 001.74-1.74c0-.54-.78-1.2-1.26-1.62a46.015 46.015 0 01-6.18-6.6.894.894 0 01-.24-.54c0-.54.48-.72.96-.72h2.04c1.5 0 3.3.06 4.26.06s1.08-.72 1.08-1.5c0-.84 0-1.68-1.08-1.68-.96 0-2.7.12-4.26.12h-2.76c-1.14 0-1.56-.48-1.68-1.68 0-3.48 0-4.02.78-4.56.48-.3.78-.42.78-.78 0-.72-1.08-.66-2.34-.78A12.67 12.67 0 0013.32 0c-.48 0-.9.12-.9.72a1.661 1.661 0 00.06.54 27.708 27.708 0 01.24 4.98c0 1.2-.48 1.68-1.68 1.68H7.32c-1.56 0-3.3-.12-4.26-.12-1.02 0-1.08.72-1.08 1.56s0 1.62 1.08 1.62c.96 0 2.7-.06 4.26-.06h3.12c.54 0 1.08.18 1.08.84a1.158 1.158 0 01-.18.6 52.212 52.212 0 01-8.58 10.92c-.42.42-1.32 1.2-1.32 1.74a2.182 2.182 0 001.74 1.68c1.68 0 7.68-8.46 8.7-10.14a.607.607 0 01.42-.24c.3 0 .36.24.42.54v5.16c0 2.4-.18 4.8-.18 7.2 0 1.26.18 2.04 1.68 2.04 1.44 0 1.62-.66 1.62-1.98 0-2.4-.18-4.86-.18-7.26v-6.6c.06-.24.18-.54.48-.54a.607.607 0 01.42.24zm83.16-.72c0 .48.48.78.96 1.14 5.4 4.2 7.68 10.14 8.52 16.8.12.78.12 1.44 1.5 1.44 1.02 0 2.34-.18 2.34-1.44a10.71 10.71 0 00-.12-1.38 30.61 30.61 0 00-4.32-11.76c-2.16-3.3-6.18-6.72-7.2-6.72a2.188 2.188 0 00-1.68 1.92zm-28.26-2.46c-.36 0-.66.12-.72.54-.06.96-.24 7.62-.24 8.82 0 5.88.54 12.96 3.18 18.24 1.68 3.36 4.86 7.5 9 7.5 2.16 0 3.72-1.62 5.1-3.18.66-.72 3.3-3.72 3.3-4.62 0-.66-1.5-1.98-2.16-1.98-.6 0-1.08 1.02-1.32 1.5-.84 1.5-3.18 4.56-5.04 4.56-2.82 0-5.52-4.38-6.48-6.66-1.92-4.38-2.22-10.2-2.22-15a31.532 31.532 0 01.36-5.34c.12-.78.18-1.26.78-1.68.3-.24.66-.54.66-.9 0-.48-.66-.72-1.08-.84a15.524 15.524 0 00-3.12-.96zm96.12-5.1a1.226 1.226 0 00.48.78 59.989 59.989 0 014.2 4.56c.18.24.42.6.78.6a2.908 2.908 0 002.16-1.98c0-.54-2.22-2.7-2.64-3.18-.48-.54-2.46-2.64-3-2.64a2.932 2.932 0 00-1.98 1.86zM147.54 4.5a.529.529 0 00-.54.54v.24a7.9 7.9 0 01.24 2.04 52 52 0 01-.66 7.5c-.3 1.68-.24 2.34-1.98 2.64-2.76.48-5.52 1.14-8.22 1.74-3.24.72-4.02.3-4.02 1.14 0 .72 1.14 3.36 1.92 3.36a2.127 2.127 0 00.66-.18 70.876 70.876 0 018.4-2.52 6.976 6.976 0 011.08-.24.617.617 0 01.66.6 43.814 43.814 0 01-1.38 4.92 54.812 54.812 0 01-11.76 19.8c-.36.36-.78.78-.78 1.26 0 .72 1.68 1.98 2.34 1.98a1.343 1.343 0 00.9-.48 59.5 59.5 0 003.96-5.22 67.92 67.92 0 0010.08-22.26c.24-1.02.12-2.1 5.82-2.1 4.8 0 5.16 3.48 5.16 7.38 0 4.32-.9 10.2-2.76 14.1-1.38 2.94-3.3 4.86-6.78 4.86a24.5 24.5 0 01-3.12-.42c-.36 0-.42.3-.42.6 0 .72.54 3.36 2.88 3.36a11.07 11.07 0 0010.14-6.12c2.58-5.1 3.36-12.42 3.36-18.06 0-5.28-1.98-8.76-7.62-8.76-1.74 0-3.96.3-4.14.3h-.42a.884.884 0 01-.9-.9 2.552 2.552 0 01.12-.66c.3-1.62.6-3.24.84-4.86.24-1.44.24-2.04 1.08-2.94a1.286 1.286 0 00.54-.9c0-.66-1.02-.84-1.56-.96a23.685 23.685 0 00-3.12-.78zm27.42-3.36c-.6 0-1.98 1.26-1.98 1.86 0 .3.36.54.54.72 1.44 1.5 2.82 3 4.14 4.62.18.24.42.6.78.6a2.908 2.908 0 002.16-1.98c0-.54-2.16-2.7-2.64-3.18-.48-.54-2.46-2.64-3-2.64zm-8.7 10.5c-.48 0-2.4.78-2.4 1.68a1.343 1.343 0 00.48.9c3.78 4.02 5.4 7.2 7.62 12.18.24.54.48 1.08 1.2 1.08.84 0 2.58-1.2 2.58-1.86 0-1.5-7.62-13.98-9.48-13.98zm53.4-3.66c-1.14 0-1.68-.48-1.68-1.68-.06-2.52 0-3.18.78-3.72.54-.3.84-.42.84-.84 0-.6-.54-.66-2.4-.84a15.849 15.849 0 00-1.74-.12c-.48 0-.9.12-.9.72v.48a24.461 24.461 0 01.3 4.32c0 1.2-.54 1.68-1.68 1.68h-12c-1.86 0-3.78-.06-5.64-.06-2.04 0-3.42.18-3.42 2.58 0 .84.06 1.68.06 2.46v2.4c0 .48-.06 1.14-.06 1.74 0 .96.42 1.2 1.68 1.2.78 0 1.68-.06 1.68-1.14 0-.54-.12-1.26-.12-1.8V12.6c0-1.14.48-1.68 1.68-1.68h38.64c1.2 0 1.68.54 1.68 1.68v3.12c0 .48-.12 1.26-.12 1.8 0 1.08.9 1.08 1.68 1.08 1.44 0 1.68-.3 1.68-1.32 0-.24-.06-1.32-.06-1.56v-2.76c0-.84.06-1.68.06-2.52 0-2.4-1.5-2.52-3.54-2.52-1.86 0-3.66.06-5.52.06zm-4.2 31.08a.993.993 0 01.78-.6.925.925 0 01.78.54c3.12 5.64 8.04 9.18 13.74 11.64 1.8.78 7.08 2.76 8.88 2.76.96 0 1.38-1.32 1.38-1.98 0-1.08-1.02-1.14-2.34-1.44-6.78-1.5-14.22-5.22-18.24-11.1a.661.661 0 01-.18-.54c0-.6.54-.78.96-.78h13.26c2.28 0 4.62.12 6.9.12 1.14 0 1.2-.6 1.2-1.62s-.06-1.62-1.2-1.62c-2.28 0-4.62.12-6.9.12h-15.84c-.78 0-1.38-.3-1.38-1.2V33a13.909 13.909 0 00.36-2.28c.06-.96.72-1.32 1.62-1.32h6.78c2.28 0 4.56.12 6.84.12 1.14 0 1.2-.66 1.2-1.62 0-1.02-.06-1.62-1.2-1.62-2.28 0-4.56.12-6.84.12h-6.72c-.96 0-1.44-.42-1.44-1.44v-2.28c0-1.02.48-1.44 1.44-1.44h8.7c2.22 0 4.44.12 6.72.12 1.08 0 1.14-.66 1.14-1.62 0-1.02-.06-1.62-1.2-1.62-2.22 0-4.44.18-6.66.18h-8.46c-1.2-.12-1.62-.48-1.68-1.62.06-1.26.06-1.68.78-2.16.54-.3.84-.48.84-.84 0-.66-.54-.72-2.46-.84a15.812 15.812 0 00-1.68-.12c-.48 0-.96.12-.96.72a2.251 2.251 0 00.06.6 19.621 19.621 0 01.24 2.64c0 1.14-.48 1.62-1.62 1.62h-8.16c-2.22 0-4.44-.18-6.72-.18-1.08 0-1.14.66-1.14 1.62 0 1.02.06 1.62 1.14 1.62 2.28 0 4.5-.12 6.72-.12h8.34c1.02 0 1.44.48 1.44 1.44v2.28c0 1.02-.42 1.44-1.44 1.44h-6.42c-2.34 0-4.62-.12-6.9-.12-1.08 0-1.14.6-1.14 1.62 0 .96.06 1.62 1.14 1.62 2.28 0 4.56-.12 6.9-.12h6.06c.84 0 1.56.3 1.56 1.26a14.811 14.811 0 01-.48 2.58 1.508 1.508 0 01-1.74 1.32h-14.1c-2.34 0-4.62-.12-6.96-.12-1.08 0-1.14.6-1.14 1.62s.06 1.62 1.14 1.62c2.34 0 4.62-.12 6.96-.12h12.84c.18 0 1.14 0 1.14.9a1.906 1.906 0 01-.18.54c-3.3 6.36-12.18 10.86-19.2 11.1-.84 0-1.32.24-1.32 1.2s.36 2.1 1.5 2.1a19.514 19.514 0 002.7-.36 35.338 35.338 0 0015.72-7.98 18.132 18.132 0 004.14-6zM277.8 1.32c-.54 0-.6.48-.78 1.14a36.273 36.273 0 01-2.76 6.48c-.96 1.86-.48 2.1-6.84 2.1-1.62 0-3.36-.12-4.5-.12-.78 0-1.02.36-1.02 1.68 0 1.68.36 1.8.9 1.8 2.34 0 4.74-.24 7.14-.24.36 0 .84 0 .84.48a1.884 1.884 0 01-.36.96c-2.34 3.78-8.4 13.32-11.28 16.2-.18.18-.48.48-.48.78 0 .84 1.62 2.1 2.4 2.1.54 0 .84-.54 1.08-.96 1.56-2.28 4.26-6.12 6.48-7.74 2.94-2.16 7.92-4.44 11.58-4.44s4.02 3.3 4.02 6.18a1.819 1.819 0 01-1.2 1.5c-1.38.72-2.82 1.5-4.2 2.28-3.9 2.28-8.4 4.86-8.4 10.02 0 3.72 2.46 6.42 5.82 7.68a22.481 22.481 0 008.46 1.26c2.16 0 9.6-.36 11.4-.84.72-.18.78-.72.78-2.04 0-.72.06-1.8-.9-1.8a2.408 2.408 0 00-.9.18 42.775 42.775 0 01-11.04 1.32c-3.84 0-10.38-.72-10.38-5.88 0-3.36 3.18-5.52 5.76-7.02.66-.42 3.24-1.98 3.84-1.98.84 0 .96.66.96 1.32 0 1.98-.18 4.02-.18 6 0 1.14.6 1.32 1.62 1.32 1.56 0 1.74-.36 1.74-1.86 0-2.52-.12-5.04-.12-7.56 0-1.14.42-1.5 1.38-1.92 2.52-1.02 5.04-2.16 7.62-3.06 1.74-.66 2.7-.72 2.7-1.62 0-.72-.66-2.7-1.5-2.7a5.369 5.369 0 00-1.56.54c-1.02.6-7.32 3.84-7.98 3.84-.72 0-.78-.84-.84-1.38a8.26 8.26 0 00-1.26-4.32 6.377 6.377 0 00-5.1-2.28 18.35 18.35 0 00-8.64 2.58 3.2 3.2 0 01-1.2.42.538.538 0 01-.54-.54 22.521 22.521 0 012.28-3.9c1.98-3.12 1.86-3.48 3.6-3.72 3.9-.48 7.8-1.08 11.58-1.92.9-.18 2.46-.42 2.46-1.32 0-.12-.12-2.64-1.26-2.64a1.752 1.752 0 00-.54.12c-1.92.6-8.28 2.34-10.08 2.34a.612.612 0 01-.66-.54 7.7 7.7 0 01.84-1.74c.96-1.68 1.26-2.4 2.34-2.88.3-.12.78-.3.78-.72 0-.48-3.3-2.94-3.9-2.94zm60.66 42.06a37.437 37.437 0 00-1.62-5.52c-1.8-4.92-2.04-5.52-3.06-5.52-.66 0-1.8.6-1.8 1.38a2.57 2.57 0 00.3.96 49.316 49.316 0 013.06 8.64c.24.78.54 1.38 1.44 1.38.72 0 1.68-.48 1.68-1.32zM320.4 33.36c-.6 0-.72.36-.84 1.26a58.093 58.093 0 01-3.3 13.08 6.53 6.53 0 00-.42 1.44c0 .72 1.38 1.02 1.92 1.02 1.2 0 1.44-1.08 2.22-3.66 1.02-3.48 1.8-6.84 2.58-10.32a1.152 1.152 0 01.84-.96c.24-.12.6-.3.6-.6 0-.54-.78-.72-2.4-1.02a10.594 10.594 0 00-1.2-.24zM356.76 9.3c-1.2 0-1.68-.48-1.68-1.68-.06-4.14-.18-5.16.78-5.76.48-.3.84-.42.84-.84 0-.54-.48-.66-2.52-.84a14.749 14.749 0 00-1.68-.12c-.48 0-.9.12-.9.72 0 .18.06.42.06.6a23.971 23.971 0 01.24 4.14v2.1c0 1.14-.48 1.68-1.68 1.68h-4.2c-2.16 0-4.32-.12-6.48-.12-1.08 0-1.14.6-1.14 1.62 0 .96.06 1.62 1.14 1.62 2.16 0 4.32-.18 6.48-.18h4.2c1.2 0 1.68.54 1.68 1.68v6.24c0 1.2-.48 1.68-1.68 1.68h-3.42c-1.86 0-3.72-.12-5.52-.12-1.14 0-1.14.72-1.14 1.62 0 .84 0 1.56 1.08 1.56 1.86 0 3.72-.12 5.58-.12h13.74c1.86 0 3.66.12 5.52.12 1.08 0 1.14-.72 1.14-1.56 0-.9 0-1.62-1.14-1.62-1.86 0-3.66.12-5.52.12h-3.78c-1.2 0-1.68-.48-1.68-1.68v-6.24c0-1.14.48-1.68 1.68-1.68h4.62c2.1 0 4.26.18 6.42.18 1.08 0 1.14-.66 1.14-1.62s-.06-1.62-1.14-1.62c-2.16 0-4.32.12-6.42.12zm-10.38 37.2a1.717 1.717 0 01-1.68-1.68V36.9a1.677 1.677 0 011.68-1.68h14.22a1.627 1.627 0 011.62 1.68v7.92a1.59 1.59 0 01-1.62 1.68zm15.84 4.14c0 .42-.06.84-.06 1.26 0 1.14.48 1.38 1.62 1.38 1.32 0 1.68-.3 1.68-1.32 0-1.14-.06-2.28-.06-3.36V37.68c0-1.02.06-1.98.06-3 0-1.74-.6-2.46-2.4-2.46H343.8c-1.92 0-2.34.9-2.34 2.64 0 .96.06 1.86.06 2.82v10.74c0 1.14-.06 2.22-.06 3.36 0 1.08.42 1.32 1.62 1.32 1.26 0 1.68-.24 1.68-1.38v-1.14c0-.78.42-1.14 1.2-1.14h15.06c.84 0 1.14.36 1.2 1.2zm-42.24-39.18c-.48-.42-1.44-1.38-2.04-1.38a1.911 1.911 0 00-1.68 1.62 1.588 1.588 0 00.72 1.14 86.682 86.682 0 017.38 6.72 1.647 1.647 0 01.66 1.26 2.046 2.046 0 01-.42 1.14c-.9 1.32-1.8 2.64-2.76 3.9a2.38 2.38 0 01-2.1 1.14c-.54.06-1.56.12-1.92.12-1.44 0-1.86.06-1.86.72a8.678 8.678 0 00.42 1.56c.54 1.56.6 2.04 1.14 2.04.36 0 .48-.24.66-.54.3-.48.36-.6.78-.72 1.92-.18 3.9-.36 5.88-.6 1.08 0 1.56.48 1.56 1.56v12.72c0 2.28-.12 4.56-.12 6.84 0 1.38.12 2.34 1.74 2.34 1.68 0 1.68-1.02 1.68-2.4 0-2.28-.12-4.5-.12-6.78V30.72c0-1.14.42-1.62 1.56-1.8 1.26-.18 2.46-.36 3.72-.48a1.209 1.209 0 011.5.9c.66 1.92.9 2.76 1.8 2.76.72 0 1.86-.42 1.86-1.32 0-.84-2.16-5.82-2.64-6.96-1.56-3.66-1.86-4.62-2.76-4.62-.72 0-1.86.54-1.86 1.32a24.38 24.38 0 001.5 3.6 1.775 1.775 0 01.12.6c0 .66-.54.96-1.14 1.02-2.34.36-4.68.48-7.02.72-.42 0-.78-.18-.78-.66a1.13 1.13 0 01.12-.48c3.42-4.74 6.72-9.48 9.78-14.4a1.151 1.151 0 011.14-.48c.36-.06.72-.06.72-.48s-1.08-1.08-1.44-1.32c-.48-.36-1.2-.96-1.62-.96-.36 0-.48.3-.66.6-1.74 2.88-3.54 5.7-5.4 8.52a1.161 1.161 0 01-1.02.6 1.374 1.374 0 01-.96-.42c-.66-.66-1.14-1.14-1.86-1.8a1.566 1.566 0 01-.6-1.2 1.9 1.9 0 01.24-.96c1.62-3.18 3.42-6.6 4.8-9.9a.929.929 0 01.66-.48c.6-.06 1.08-.12 1.08-.54s-1.08-1.02-1.44-1.2a5.859 5.859 0 00-1.8-.78c-.36 0-.48.3-.6.6-.9 2.58-3.54 7.8-4.86 10.38-.18.24-.42.66-.9.66a1.434 1.434 0 01-.84-.3zm100.92-1.08c-.6 0-1.98 1.2-1.98 1.8 0 .3.36.6.54.78a59.139 59.139 0 014.14 4.56c.24.24.42.6.84.6a2.82 2.82 0 002.1-1.98c0-.48-2.22-2.7-2.64-3.18-.48-.48-2.46-2.58-3-2.58zm5.46-3.72a2.967 2.967 0 00-1.92 1.86 1.393 1.393 0 00.48.78 59.147 59.147 0 014.14 4.56c.24.24.48.6.84.6a2.923 2.923 0 002.1-1.98c0-.48-2.16-2.7-2.64-3.18s-2.46-2.64-3-2.64zm-19.08 24.6c0-.78 1.08-.9 1.62-.9 7.38 0 14.28 5.52 16.98 12.24.18.54.42.9 1.02.9.96 0 3.3-.96 3.3-1.8 0-1.32-7.68-13.98-20.58-13.98a16.862 16.862 0 00-3.9.36 3.512 3.512 0 01-.78.12 2.5 2.5 0 01-1.74-1.02c-.96-1.02-2.4-2.22-2.4-3.72 0-2.22 1.5-3.9 1.5-4.62 0-.9-2.16-1.8-2.7-1.8-.66 0-.78.24-1.08.9a14.686 14.686 0 00-1.14 5.1 6.42 6.42 0 002.1 4.68 3.628 3.628 0 01.9 1.38c0 .6-.66.9-1.14 1.14-1.26.66-2.58 1.38-3.84 2.1-3.96 2.28-7.98 4.56-12.06 6.54-1.68.78-3.06 1.14-3.06 1.8 0 .54 1.74 3.96 2.7 3.96a1.108 1.108 0 00.9-.72c.42-.78.48-.84 1.5-1.56 3.96-2.7 7.38-4.92 11.46-7.32 1.08-.66 5.04-3.12 6-3.12a2.2 2.2 0 011.5.9c1.86 2.16 4.02 5.1 4.02 8.04 0 2.22-1.5 2.88-3.54 2.88a29.354 29.354 0 01-7.14-1.32c-.42 0-.48.48-.48.78 0 .54.06 2.58.42 2.88.54.54 7.02 1.02 8.1 1.02 3.48 0 6.18-1.56 6.18-5.34 0-3.96-1.56-6.66-4.08-9.54-.18-.24-.54-.6-.54-.96zm-6.12-25.5c-.78 0-1.56 1.62-1.56 2.46 0 .72.54.9 1.2 1.2a35.812 35.812 0 017.5 4.56 1.757 1.757 0 00.96.42c.78 0 1.8-1.92 1.8-2.64 0-.96-2.1-1.92-4.74-3.42-.78-.48-4.44-2.58-5.16-2.58zM40.02 90.78c-1.2 0-1.68-.48-1.68-1.68v-8.4c0-4.56-.18-5.7.78-6.36.48-.3.84-.42.84-.84 0-.6-.54-.66-2.46-.84a16.952 16.952 0 00-1.74-.12c-.48 0-.9.18-.9.78 0 .18.06.42.06.6a47.688 47.688 0 01.24 6.78v8.4c0 1.2-.48 1.68-1.68 1.68h-2.16c-2.28 0-4.56-.12-6.84-.12-1.08 0-1.2.6-1.2 1.62 0 .96.06 1.62 1.2 1.62 2.28 0 4.56-.12 6.84-.12h2.16c1.2 0 1.68.48 1.68 1.62v22.92c0 1.14-.48 1.68-1.68 1.68h-7.2c-2.28 0-4.62-.18-6.9-.18-1.08 0-1.14.66-1.14 1.62 0 1.02.06 1.62 1.14 1.62 2.28 0 4.62-.12 6.9-.12h19.2c2.34 0 4.62.12 6.9.12 1.14 0 1.14-.66 1.14-1.62 0-.9 0-1.62-1.14-1.62-2.28 0-4.56.18-6.9.18h-5.46c-1.2 0-1.68-.54-1.68-1.68V95.4c0-1.14.48-1.62 1.68-1.62h3.12c2.28 0 4.56.12 6.84.12 1.08 0 1.14-.66 1.14-1.62 0-1.02-.06-1.62-1.2-1.62-2.22 0-4.5.12-6.78.12zm-26.16 11.88c2.1 2.1 4.26 4.14 6.54 6.06a3.383 3.383 0 001.86 1.02c.9 0 1.74-1.2 1.74-1.86 0-.6-.54-.96-.96-1.26-2.7-2.16-5.4-4.32-7.92-6.72a1.588 1.588 0 01-.54-1.14 1.639 1.639 0 01.48-1.14c1.62-2.04 6.84-8.64 6.84-10.98A2.555 2.555 0 0019.26 84c-1.44 0-2.82.06-4.26.06h-.42c-1.14 0-1.62-.48-1.62-1.68v-2.76c0-3.9-.12-4.92.78-5.46.48-.3.84-.42.84-.84 0-.6-.78-.72-2.52-.84a14.749 14.749 0 00-1.68-.12c-.36 0-.9.06-.9.78 0 .18.06.36.06.54a48.677 48.677 0 01.24 5.94v2.76c0 1.14-.48 1.56-1.62 1.68-1.26 0-3.96-.12-5.94-.12-1.02 0-1.2.42-1.2 1.62 0 1.02.12 1.62 1.2 1.62 2.28 0 4.56-.18 6.84-.18H15c2.94 0 3.3.06 3.3.6 0 .66-2.34 4.08-2.88 4.8a75.884 75.884 0 01-13.98 14.1c-.72.54-1.44.9-1.44 1.68a1.811 1.811 0 001.74 1.62 2.963 2.963 0 001.92-.96c1.62-1.38 3.24-2.82 4.74-4.26a1.078 1.078 0 01.54-.24c.48 0 .6.42.66.78v12.66c0 1.92-.12 3.84-.12 5.82 0 1.32.06 2.22 1.68 2.22s1.74-.84 1.74-2.22c0-1.98-.12-3.9-.12-5.82v-14.64c0-.36.12-.72.54-.72a.894.894 0 01.54.24zm82.2-6.6c1.98 0 3.96.12 5.94.12 1.08 0 1.14-.72 1.14-1.62s-.06-1.62-1.2-1.62c-1.92 0-3.9.18-5.88.18H84.48c-1.98 0-3.96-.18-5.94-.18-1.08 0-1.14.72-1.14 1.62s.06 1.62 1.14 1.62c1.98 0 3.96-.12 5.94-.12zm-9.42 12.96a.929.929 0 01.72-.48c.54-.06 1.08-.06 1.08-.54 0-.54-.9-.9-1.56-1.32a.33.33 0 01-.18-.3.336.336 0 01.36-.3h17.28c2.34 0 4.68.12 6.96.12 1.14 0 1.2-.6 1.2-1.62s-.06-1.62-1.2-1.62c-2.28 0-4.62.12-6.96.12H75.9c-2.34 0-4.68-.12-7.02-.12-1.08 0-1.14.6-1.14 1.62s.06 1.62 1.14 1.62c2.34 0 4.68-.12 7.02-.12h7.02c.6.06 1.14.24 1.14.96a1.321 1.321 0 01-.06.48 119.172 119.172 0 01-5.64 11.76 2.327 2.327 0 01-2.22 1.5c-1.14.12-3.9.36-4.98.36-.54 0-1.44 0-1.44.66 0 .24.66 3.6 1.5 3.6.36 0 .6-.36.72-.6.3-.54.3-.54.66-.6 10.14-.9 20.28-1.92 30.36-3.12h.42a2.29 2.29 0 011.98.96c2.34 2.88 2.82 3.66 3.6 3.66a1.8 1.8 0 001.68-1.5 1.955 1.955 0 00-.48-1.08c-1.56-1.98-3.24-3.96-4.92-5.82-1.68-1.98-3.42-3.96-5.22-5.88a1.751 1.751 0 00-1.26-.66 1.912 1.912 0 00-1.68 1.56 1.651 1.651 0 00.48.9c1.2 1.32 2.34 2.52 3.48 3.84a1.066 1.066 0 01.24.6.838.838 0 01-.78.78q-8.82.99-17.64 1.8c-.54 0-.96-.24-.96-.78a1.412 1.412 0 01.12-.48c1.68-3.24 3.06-6.36 4.62-9.96zm4.5-30.72a73.665 73.665 0 0015.6 14.94c1.32.96 7.74 5.16 9 5.16.78 0 1.56-1.32 1.56-2.04 0-.66-.84-.96-1.38-1.26a69.656 69.656 0 01-23.76-20.22.571.571 0 01-.12-.42.405.405 0 01.24-.36.652.652 0 01.3-.06c.3 0 1.02 0 1.02-.48 0-.9-3.24-1.86-3.42-1.86-.36 0-.48.3-.66.6C84.3 82.02 74.88 90 65.28 95.28c-.78.42-1.56.78-1.56 1.44 0 .72.96 1.98 1.62 1.98a8.291 8.291 0 002.46-1.14 70.678 70.678 0 0021.48-19.2 1.115 1.115 0 01.9-.54 1.166 1.166 0 01.96.48zm60.66-4.98c-.54 0-.6.48-.78 1.14a36.274 36.274 0 01-2.76 6.48c-.96 1.86-.48 2.1-6.84 2.1-1.62 0-3.36-.12-4.5-.12-.78 0-1.02.36-1.02 1.68 0 1.68.36 1.8.9 1.8 2.34 0 4.74-.24 7.14-.24.36 0 .84 0 .84.48a1.883 1.883 0 01-.36.96c-2.34 3.78-8.4 13.32-11.28 16.2-.18.18-.48.48-.48.78 0 .84 1.62 2.1 2.4 2.1.54 0 .84-.54 1.08-.96 1.56-2.28 4.26-6.12 6.48-7.74 2.94-2.16 7.92-4.44 11.58-4.44s4.02 3.3 4.02 6.18a1.819 1.819 0 01-1.2 1.5c-1.38.72-2.82 1.5-4.2 2.28-3.9 2.28-8.4 4.86-8.4 10.02 0 3.72 2.46 6.42 5.82 7.68a22.481 22.481 0 008.46 1.26c2.16 0 9.6-.36 11.4-.84.72-.18.78-.72.78-2.04 0-.72.06-1.8-.9-1.8a2.408 2.408 0 00-.9.18 42.776 42.776 0 01-11.04 1.32c-3.84 0-10.38-.72-10.38-5.88 0-3.36 3.18-5.52 5.76-7.02.66-.42 3.24-1.98 3.84-1.98.84 0 .96.66.96 1.32 0 1.98-.18 4.02-.18 6 0 1.14.6 1.32 1.62 1.32 1.56 0 1.74-.36 1.74-1.86 0-2.52-.12-5.04-.12-7.56 0-1.14.42-1.5 1.38-1.92 2.52-1.02 5.04-2.16 7.62-3.06 1.74-.66 2.7-.72 2.7-1.62 0-.72-.66-2.7-1.5-2.7a5.369 5.369 0 00-1.56.54c-1.02.6-7.32 3.84-7.98 3.84-.72 0-.78-.84-.84-1.38a8.26 8.26 0 00-1.26-4.32 6.377 6.377 0 00-5.1-2.28 18.35 18.35 0 00-8.64 2.58 3.2 3.2 0 01-1.2.42.538.538 0 01-.54-.54 22.52 22.52 0 012.28-3.9c1.98-3.12 1.86-3.48 3.6-3.72 3.9-.48 7.8-1.08 11.58-1.92.9-.18 2.46-.42 2.46-1.32 0-.12-.12-2.64-1.26-2.64a1.752 1.752 0 00-.54.12c-1.92.6-8.28 2.34-10.08 2.34a.612.612 0 01-.66-.54 7.7 7.7 0 01.84-1.74c.96-1.68 1.26-2.4 2.34-2.88.3-.12.78-.3.78-.72 0-.48-3.3-2.94-3.9-2.94zm83.46 43.2c0 4.38-.06 5.4-4.02 5.4-1.38 0-2.4-.12-3.06-.12-.9 0-1.08.54-1.08 1.32 0 2.34.72 2.46 2.64 2.46 6.06 0 9-.9 9-5.88 0-1.2-.12-2.46-.12-3.66V81.78c0-5.1-.18-6.54.84-7.14.54-.36.84-.48.84-.9 0-.66-.84-.72-1.5-.78-.78-.06-2.1-.24-2.88-.24-.54 0-.96.18-.96.78a2.25 2.25 0 00.06.66 53.629 53.629 0 01.24 7.62zM225 105.72c0 2.16-.18 4.38-.18 6.6 0 1.32.18 2.16 1.74 2.16 1.62 0 1.74-.78 1.74-2.16 0-2.22-.18-4.44-.18-6.6V87.54c0-4.14-.06-5.1.78-5.64.54-.36.84-.42.84-.78 0-.72-1.08-.66-2.46-.84a15.811 15.811 0 00-1.68-.12c-.54 0-.9.12-.9.78a1.661 1.661 0 00.06.54 40.956 40.956 0 01.24 6.06zm-21.54 14.34a1.627 1.627 0 01-1.62-1.68v-2.64a1.613 1.613 0 011.62-1.62h9.9a1.665 1.665 0 011.68 1.62v2.64a1.677 1.677 0 01-1.68 1.68zm-1.62 4.08a1.086 1.086 0 011.2-1.14h10.74a1.053 1.053 0 011.2 1.2c.06 1.08.42 1.32 1.62 1.32 1.44 0 1.62-.42 1.62-1.44 0-.84-.06-1.74-.06-2.58v-5.7c0-.84.06-1.62.06-2.4 0-1.56-.66-2.34-2.22-2.34-.84 0-1.68.06-2.52.06h-10.14c-2.94 0-4.74-.48-4.74 2.4 0 .78.06 1.5.06 2.28v5.7c0 .9-.06 1.8-.06 2.76s.36 1.26 1.62 1.26c1.14 0 1.68-.18 1.62-1.38zm12-23.76c1.02 0 1.44.42 1.44 1.44v.96c0 .96-.42 1.44-1.44 1.44h-12.78c-1.14 0-1.56-.48-1.56-1.62v-.9c.12-.96.48-1.32 1.44-1.32zm-13.08-2.82a1.182 1.182 0 01-1.26-1.2V95.1a1.182 1.182 0 011.26-1.2h13.32a1.134 1.134 0 011.2 1.2v1.26a1.134 1.134 0 01-1.2 1.2zm10.5 9.6c1.38 0 2.76.06 4.2.06 1.68 0 3.06-.12 3.06-2.16 0-.78-.06-1.62-.06-2.4v-7.2c0-.84.06-1.68.06-2.52 0-1.98-1.56-2.1-3.12-2.1-1.38 0-2.76.06-4.14.06h-7.68c-1.5 0-2.94-.12-4.44-.12-2.1 0-2.82.54-2.82 2.34v7.56c0 6.42-1.14 13.5-5.1 18.66-.24.3-.72.84-.72 1.2 0 .72 1.38 1.86 2.04 1.86.48 0 .96-.72 1.26-1.08 2.76-3.66 4.08-8.16 4.98-12.54a1.685 1.685 0 011.92-1.62zM199.14 86.4c.06.78.18 1.32 1.08 1.32.66 0 2.4-.12 3.84-.12h6.18c1.32 0 3 .12 3.84.12 1.02 0 1.02-.78 1.02-1.62s0-1.56-1.02-1.56c-.78 0-2.52.06-3.84.06h-8.52c-.36-.06-.66-.24-.66-.6 0-.24.12-.36.3-.54 1.92-1.74 3.24-3.06 5.04-4.98a1.35 1.35 0 012.16 0 54.191 54.191 0 006.6 5.7c.84.6 3.9 2.76 4.8 2.76.96 0 1.68-1.26 1.68-1.92s-.6-1.02-1.08-1.32a44.494 44.494 0 01-10.38-7.92.361.361 0 01-.06-.24.608.608 0 01.36-.54.534.534 0 00.3-.48c0-.72-3.12-1.86-3.3-1.86-.42 0-.72.6-1.02 1.02-3.54 5.22-9.18 9.72-14.58 12.96-.48.3-1.08.66-1.08 1.32a1.909 1.909 0 001.62 1.62c1.02 0 4.92-2.88 5.88-3.66a.643.643 0 01.36-.12c.3 0 .42.3.48.6zm80.76 29.1c0 1.08-.42 2.88-1.74 2.88-2.22 0-6.18-1.38-6.18-4.08a3.291 3.291 0 013.36-3.24 4.457 4.457 0 014.56 4.44zm4.74-37.5a6.394 6.394 0 00-1.86.36 56.221 56.221 0 01-14.46 2.16h-1.56c-1.2 0-1.68.24-1.68 1.56 0 .9 0 2.76 1.26 2.76a11.075 11.075 0 001.38-.24c4.44-1.02 8.82-1.8 13.26-2.7a13.27 13.27 0 011.5-.3.585.585 0 01.66.6 1.336 1.336 0 01-.54 1.02c-7.08 7.44-13.62 15.48-21.36 22.26-1.14.96-2.34 1.86-2.34 2.58 0 .66 1.2 2.34 2.34 2.34.36 0 .54-.36.9-.72a99.38 99.38 0 017.68-8.16 19.1 19.1 0 0112.42-4.44c5.88 0 11.64 2.58 11.64 9.24 0 8.4-8.88 11.76-10.56 11.76a.545.545 0 01-.6-.48 8.1 8.1 0 00.66-2.52c0-4.02-4.62-6.9-8.34-6.9a5.906 5.906 0 00-3.48 10.86 13.483 13.483 0 008.04 2.22c8.76 0 17.76-5.34 17.76-15 0-8.16-7.08-12.12-14.46-12.12a22.478 22.478 0 00-4.92.54 9.932 9.932 0 01-1.26.36.41.41 0 01-.42-.42c0-.36.78-1.14 1.02-1.38 2.46-2.64 8.1-8.94 10.86-10.56.3-.18.9-.54.9-.9 0-.78-2.22-3.78-4.44-3.78zm40.5 29.52a8.04 8.04 0 108.04 8.04 8.092 8.092 0 00-8.04-8.04zm0 2.34a5.7 5.7 0 11-5.7 5.7 5.736 5.736 0 015.7-5.7z"/></svg>